<?xml version="1.0" standalone="no"?>
<!DOCTYPE svg PUBLIC "-//W3C//DTD SVG 20010904//EN"
 "http://www.w3.org/TR/2001/REC-SVG-20010904/DTD/svg10.dtd">
<svg version="1.0" xmlns="http://www.w3.org/2000/svg"
 width="99.000000pt" height="110.000000pt" viewBox="0 0 99.000000 110.000000"
 preserveAspectRatio="xMidYMid meet">
<metadata>
Created by potrace 1.13, written by Peter Selinger 2001-2015
</metadata>
<g transform="translate(0.000000,110.000000) scale(0.100000,-0.100000)"
fill="#000000" stroke="none">
<path d="M156 1064 c-8 -21 10 -168 29 -229 13 -45 13 -49 -9 -84 -38 -60 -61
-74 -101 -68 l-36 6 20 -32 c11 -18 41 -43 70 -57 28 -14 49 -29 47 -35 -5
-15 -68 -10 -104 8 -39 19 -40 13 -4 -44 30 -47 86 -91 140 -110 17 -6 32 -17
32 -25 0 -17 -37 -18 -77 -3 l-28 10 31 -33 c17 -18 55 -68 84 -111 58 -84
137 -162 206 -203 l43 -25 48 28 c97 57 211 190 280 328 65 129 121 335 126
459 l2 60 -63 19 -62 19 6 64 c6 52 4 65 -9 69 -15 6 -118 -41 -170 -77 -24
-17 -44 -20 -160 -20 l-132 0 -84 51 c-89 54 -115 61 -125 35z m729 -178 c30
-13 34 -19 30 -43 -43 -252 -89 -382 -190 -538 -42 -65 -133 -164 -184 -199
l-39 -27 -39 24 c-59 39 -193 185 -193 211 0 16 67 13 83 -3 6 -6 14 -11 17
-11 9 0 34 192 28 210 -2 7 -24 20 -48 29 -41 15 -48 23 -82 91 -20 41 -36 76
-34 77 1 1 18 -2 38 -7 44 -13 121 -67 115 -83 -6 -18 -42 -15 -41 4 1 9 -13
23 -31 32 l-33 16 24 -44 c20 -34 34 -46 69 -58 49 -16 57 -8 34 35 -13 24 0
42 24 32 20 -7 37 -63 37 -119 0 -40 0 -40 -18 -18 -16 22 -17 20 -17 -74 0
-97 0 -98 27 -107 17 -6 41 -6 65 0 l37 9 -4 50 c-3 28 -4 72 -4 99 l1 49 -18
-24 -19 -24 0 30 c0 45 19 118 33 127 24 16 40 9 33 -14 -3 -13 -9 -33 -12
-45 l-6 -22 49 18 c38 13 53 25 71 59 l24 43 -35 -17 c-20 -9 -34 -23 -33 -33
1 -10 -7 -16 -18 -16 -64 0 25 77 111 96 54 12 54 13 52 48 -4 45 30 151 48
151 8 0 29 -6 48 -14z"/>
</g>
</svg>
